<svg width="135" height="138" viewBox="0 0 135 138" fill="none" xmlns="http://www.w3.org/2000/svg">
<path opacity="0.9" d="M70.918 15C70.918 6.71573 77.6337 0 85.918 0H112C124.703 0 135 10.2975 135 23V57.0822C135 60.9482 131.866 64.0822 128 64.0822H85.918C77.6337 64.0822 70.918 57.3664 70.918 49.0822V15Z" fill="#7F7F7F"/>
<path opacity="0.9" d="M70.918 122.563C70.918 130.847 77.6337 137.563 85.918 137.563H112C124.703 137.563 135 127.266 135 114.563V80.4808C135 76.6148 131.866 73.4808 128 73.4808H85.918C77.6337 73.4808 70.918 80.1966 70.918 88.4808V122.563Z" fill="#7F7F7F"/>
<path d="M0 23C0 10.2974 10.2975 0 23 0H49.0821C57.3663 0 64.0821 6.71573 64.0821 15V49.0822C64.0821 57.3664 57.3663 64.0822 49.0821 64.0822H7C3.13401 64.0822 0 60.9482 0 57.0822V23Z" fill="white"/>
<path opacity="0.9" d="M0 114.563C0 127.266 10.2975 137.563 23 137.563H49.0821C57.3663 137.563 64.0821 130.847 64.0821 122.563V88.4808C64.0821 80.1966 57.3663 73.4808 49.0821 73.4808H7C3.13401 73.4808 0 76.6148 0 80.4808V114.563Z" fill="#7F7F7F"/>
</svg>
