<svg width="132" height="122" viewBox="0 0 132 122" fill="none" xmlns="http://www.w3.org/2000/svg">
<path d="M63.5969 121.394L63.5495 121.373L63.4006 121.292C62.5293 120.812 61.6651 120.319 60.808 119.814C50.504 113.684 40.8745 106.482 32.0794 98.3282C16.5034 83.7759 0 62.1814 0 35.5847C0 15.7389 16.6794 0.000480904 36.8111 0.000480904C42.4076 -0.0269659 47.9382 1.20926 52.9917 3.61723C58.0452 6.0252 62.4915 9.54294 66 13.9088C69.5092 9.54204 73.9566 6.02376 79.0113 3.61576C84.0661 1.20775 89.5981 -0.0279865 95.1957 0.000480904C115.321 0.000480904 132 15.7389 132 35.5847C132 62.1882 115.497 83.7827 99.9206 98.3214C91.1257 106.475 81.4962 113.677 71.192 119.808C70.335 120.315 69.4707 120.81 68.5994 121.292L68.4505 121.373L68.4031 121.4L68.3828 121.407C67.6487 121.796 66.8307 122 66 122C65.1693 122 64.3513 121.796 63.6172 121.407L63.5969 121.394Z" fill="black"/>
</svg>
